<svg xmlns="http://www.w3.org/2000/svg" viewBox="0 0 1024 1024" width="1024" height="1024">
  <defs>
    <linearGradient id="bg" x1="0" y1="0" x2="1" y2="1">
      <stop offset="0" stop-color="#4361ee"/>
      <stop offset="1" stop-color="#3451d1"/>
    </linearGradient>
  </defs>
  <!-- brand tile -->
  <rect x="0" y="0" width="1024" height="1024" rx="228" fill="url(#bg)"/>
  <!-- microphone -->
  <g fill="#ffffff">
    <rect x="432" y="212" width="160" height="330" rx="80"/>
    <path d="M320 476 h56 a136 136 0 0 0 272 0 h56 a192 192 0 0 1-164 190 v92 h96 a28 28 0 0 1 0 56 H332 a28 28 0 0 1 0-56 h96 v-92 A192 192 0 0 1 320 476 Z"/>
  </g>
  <!-- gold sound accents -->
  <g fill="none" stroke="#ffc300" stroke-width="34" stroke-linecap="round">
    <path d="M236 396 v104"/>
    <path d="M788 396 v104"/>
  </g>
</svg>
